<?xml version="1.0" encoding="UTF-8"?>
<!DOCTYPE svg PUBLIC "-//W3C//DTD SVG 1.1//EN" "http://www.w3.org/Graphics/SVG/1.1/DTD/svg11.dtd">
<svg xmlns="http://www.w3.org/2000/svg" version="1.1" width="324px" height="183px" style="shape-rendering:geometricPrecision; text-rendering:geometricPrecision; image-rendering:optimizeQuality; fill-rule:evenodd; clip-rule:evenodd" xmlns:xlink="http://www.w3.org/1999/xlink">
<g><path style="opacity:1" fill="#010100" d="M -0.5,-0.5 C 107.5,-0.5 215.5,-0.5 323.5,-0.5C 323.5,60.5 323.5,121.5 323.5,182.5C 215.5,182.5 107.5,182.5 -0.5,182.5C -0.5,121.5 -0.5,60.5 -0.5,-0.5 Z"/></g>
<g><path style="opacity:1" fill="#757575" d="M 121.5,20.5 C 114.646,20.176 107.979,20.5093 101.5,21.5C 100.957,21.44 100.624,21.1067 100.5,20.5C 107.656,19.1812 114.656,19.1812 121.5,20.5 Z"/></g>
<g><path style="opacity:1" fill="#747474" d="M 198.5,20.5 C 204.979,19.5093 211.646,19.176 218.5,19.5C 218.737,20.791 218.404,21.791 217.5,22.5C 211.588,20.5437 205.255,19.8771 198.5,20.5 Z"/></g>
<g><path style="opacity:1" fill="#f9f9f9" d="M 238.5,18.5 C 250.015,17.5012 261.015,19.3345 271.5,24C 272.022,24.5613 272.355,25.228 272.5,26C 270.968,30.8943 268.802,35.3943 266,39.5C 257.951,35.3618 249.451,33.8618 240.5,35C 234.874,37.487 234.208,40.8203 238.5,45C 246.866,47.2273 255.199,49.5607 263.5,52C 275.652,57.7806 279.152,66.9473 274,79.5C 269.657,86.2627 263.49,90.4294 255.5,92C 243.915,93.3803 232.582,92.3803 221.5,89C 218.79,87.9848 216.457,86.4848 214.5,84.5C 216.306,79.5545 218.639,74.8878 221.5,70.5C 232.147,76.7451 243.313,78.0784 255,74.5C 255.758,72.2305 255.591,70.0639 254.5,68C 244.289,65.2811 234.289,61.9478 224.5,58C 216.979,52.7824 214.145,45.6157 216,36.5C 218.013,29.8193 222.18,24.986 228.5,22C 231.85,20.5137 235.184,19.347 238.5,18.5 Z"/></g>
<g><path style="opacity:1" fill="#fafafa" d="M 56.5,19.5 C 63.4222,19.1878 70.2555,19.5212 77,20.5C 87.3712,44.0743 97.8712,67.5743 108.5,91C 101.5,91.6667 94.5,91.6667 87.5,91C 85.5,86.6667 83.5,82.3333 81.5,78C 71.4834,77.1678 61.4834,77.3344 51.5,78.5C 49.2345,82.634 47.5678,86.9673 46.5,91.5C 39.4684,91.8303 32.4684,91.497 25.5,90.5C 36.1205,66.9288 46.4538,43.2622 56.5,19.5 Z"/></g>
<g><path style="opacity:1" fill="#fbfbfb" d="M 198.5,20.5 C 205.255,19.8771 211.588,20.5437 217.5,22.5C 209.763,45.3777 202.43,68.3777 195.5,91.5C 188.137,91.8306 180.803,91.4973 173.5,90.5C 169.004,76.5221 164.504,62.5221 160,48.5C 154.934,62.3634 150.268,76.3634 146,90.5C 138.587,91.4808 131.087,91.8142 123.5,91.5C 116.369,68.1063 109.035,44.7729 101.5,21.5C 107.979,20.5093 114.646,20.176 121.5,20.5C 126.597,34.9592 131.43,49.6258 136,64.5C 140.799,49.7698 145.799,35.1032 151,20.5C 157.084,19.358 163.251,19.1913 169.5,20C 174.727,35.0163 179.561,50.183 184,65.5C 189.142,50.5749 193.975,35.5749 198.5,20.5 Z"/></g>
<g><path style="opacity:1" fill="#0a0a0a" d="M 66.5,41.5 C 69.8649,47.8973 72.8649,54.564 75.5,61.5C 69.5276,62.6636 63.5276,62.8303 57.5,62C 60.3686,55.0973 63.3686,48.264 66.5,41.5 Z"/></g>
<g><path style="opacity:1" fill="#f08848" d="M 284.5,86.5 C 299.002,85.8374 307.336,92.6707 309.5,107C 309.944,111.306 308.277,114.139 304.5,115.5C 302.732,101.563 294.898,93.2292 281,90.5C 280.333,89.8333 280.333,89.1667 281,88.5C 282.302,87.9152 283.469,87.2485 284.5,86.5 Z"/></g>
<g><path style="opacity:1" fill="#f48a49" d="M 287.5,102.5 C 290.864,101.873 292.864,103.206 293.5,106.5C 292.103,109.406 290.103,111.906 287.5,114C 255.408,142.376 218.074,160.043 175.5,167C 132.351,172.257 92.0176,163.923 54.5,142C 38.0235,132.511 23.0235,121.177 9.5,108C 9.94467,104.211 11.9447,102.877 15.5,104C 37.6551,123.791 62.6551,139.125 90.5,150C 146.212,168.056 199.212,162.056 249.5,132C 263.21,123.45 275.877,113.616 287.5,102.5 Z"/></g>
</svg>
