<?xml version="1.0" encoding="UTF-8"?>
<!DOCTYPE svg PUBLIC "-//W3C//DTD SVG 1.1//EN" "http://www.w3.org/Graphics/SVG/1.1/DTD/svg11.dtd">
<svg xmlns="http://www.w3.org/2000/svg" version="1.1" width="542px" height="334px" style="shape-rendering:geometricPrecision; text-rendering:geometricPrecision; image-rendering:optimizeQuality; fill-rule:evenodd; clip-rule:evenodd" xmlns:xlink="http://www.w3.org/1999/xlink">
<g><path style="opacity:0.392" fill="#9abdf3" d="M 293.5,18.5 C 269.339,19.4976 245.006,19.831 220.5,19.5C 217.763,19.4013 215.096,19.7347 212.5,20.5C 211.833,20.5 211.167,20.5 210.5,20.5C 211.263,19.7321 212.263,19.2321 213.5,19C 224.743,18.8218 235.91,18.3218 247,17.5C 262.407,17.3698 277.907,17.7032 293.5,18.5 Z"/></g>
<g><path style="opacity:0.392" fill="#9abef5" d="M 295.5,18.5 C 304.506,18.3336 313.506,18.5002 322.5,19C 323.737,19.2321 324.737,19.7321 325.5,20.5C 315.349,19.9341 305.349,19.2675 295.5,18.5 Z"/></g>
<g><path style="opacity:1" fill="#5e8ddf" d="M 295.5,18.5 C 305.349,19.2675 315.349,19.9341 325.5,20.5C 326.239,20.369 326.906,20.5357 327.5,21C 328.748,22.3997 329.748,23.8997 330.5,25.5C 328.717,24.8865 327.384,23.7198 326.5,22C 324.5,21.6667 322.5,21.3333 320.5,21C 286.997,20.8325 253.664,20.3325 220.5,19.5C 245.006,19.831 269.339,19.4976 293.5,18.5C 294.167,17.1667 294.833,17.1667 295.5,18.5 Z"/></g>
<g><path style="opacity:1" fill="#4c8bf3" d="M 220.5,19.5 C 253.664,20.3325 286.997,20.8325 320.5,21C 322.5,21.3333 324.5,21.6667 326.5,22C 327.384,23.7198 328.717,24.8865 330.5,25.5C 332.539,26.911 333.539,28.911 333.5,31.5C 334.08,33.7488 335.413,35.4154 337.5,36.5C 337.5,37.1667 337.5,37.8333 337.5,38.5C 337.91,42.3867 338.91,46.0534 340.5,49.5C 341.5,49.5 342.5,49.5 343.5,49.5C 343.35,52.4587 344.35,54.9587 346.5,57C 308.331,57.1674 270.331,57.6674 232.5,58.5C 230.421,62.3283 228.588,66.3283 227,70.5C 226.005,71.0659 225.172,71.7326 224.5,72.5C 222.716,73.5738 221.549,75.2404 221,77.5C 220.107,76.2888 219.274,76.2888 218.5,77.5C 217.368,80.824 216.368,84.1574 215.5,87.5C 214.325,87.281 213.325,87.6143 212.5,88.5C 211.725,91.4836 211.059,94.4836 210.5,97.5C 209.126,99.8583 207.793,102.192 206.5,104.5C 206.063,101.193 206.73,98.1934 208.5,95.5C 208.333,95.1667 208.167,94.8333 208,94.5C 204.651,98.8127 203.151,98.146 203.5,92.5C 202.5,92.5 201.5,92.5 200.5,92.5C 200.443,87.3183 199.776,87.3183 198.5,92.5C 197.41,91.6086 197.41,90.6086 198.5,89.5C 197.833,88.1667 197.167,86.8333 196.5,85.5C 198.04,84.4679 198.54,83.1346 198,81.5C 196.927,82.2797 195.76,82.113 194.5,81C 194.07,80.0805 193.736,79.2472 193.5,78.5C 192.749,79.376 192.249,80.376 192,81.5C 191.097,80.2986 189.931,79.4652 188.5,79C 189.535,77.4931 189.368,75.9931 188,74.5C 186.855,73.3636 185.688,72.3636 184.5,71.5C 184.007,69.1944 183.674,66.861 183.5,64.5C 183.5,64.1667 183.5,63.8333 183.5,63.5C 185.313,61.9468 187.147,60.2801 189,58.5C 191,54.5 193,50.5 195,46.5C 195.414,46.0426 195.914,45.7093 196.5,45.5C 198.767,50.6304 200.434,50.297 201.5,44.5C 200.325,44.719 199.325,44.3857 198.5,43.5C 202.595,38.9728 204.762,33.6394 205,27.5C 206.319,25.5125 208.152,24.3459 210.5,24C 211.305,22.8873 211.972,21.7206 212.5,20.5C 215.096,19.7347 217.763,19.4013 220.5,19.5 Z"/></g>
<g><path style="opacity:0.655" fill="#a4bcf1" d="M 333.5,31.5 C 335.587,32.5846 336.92,34.2512 337.5,36.5C 335.413,35.4154 334.08,33.7488 333.5,31.5 Z"/></g>
<g><path style="opacity:0.169" fill="#b9cff9" d="M 197.5,39.5 C 197.155,42.1979 195.822,44.1979 193.5,45.5C 194.34,43.1475 195.674,41.1475 197.5,39.5 Z"/></g>
<g><path style="opacity:1" fill="#6192e9" d="M 210.5,20.5 C 211.167,20.5 211.833,20.5 212.5,20.5C 211.972,21.7206 211.305,22.8873 210.5,24C 208.152,24.3459 206.319,25.5125 205,27.5C 204.762,33.6394 202.595,38.9728 198.5,43.5C 199.325,44.3857 200.325,44.719 201.5,44.5C 200.434,50.297 198.767,50.6304 196.5,45.5C 195.914,45.7093 195.414,46.0426 195,46.5C 193,50.5 191,54.5 189,58.5C 187.147,60.2801 185.313,61.9468 183.5,63.5C 186.645,57.4033 189.978,51.4033 193.5,45.5C 195.822,44.1979 197.155,42.1979 197.5,39.5C 199.435,35.061 201.602,30.7276 204,26.5C 205.757,23.9033 207.924,21.9033 210.5,20.5 Z"/></g>
<g><path style="opacity:1" fill="#5a86d8" d="M 337.5,38.5 C 339.451,39.7158 340.951,41.3825 342,43.5C 344.493,48.4851 346.993,53.4851 349.5,58.5C 334.167,58.5 318.833,58.5 303.5,58.5C 279.833,58.5 256.167,58.5 232.5,58.5C 270.331,57.6674 308.331,57.1674 346.5,57C 344.35,54.9587 343.35,52.4587 343.5,49.5C 342.5,49.5 341.5,49.5 340.5,49.5C 338.91,46.0534 337.91,42.3867 337.5,38.5 Z"/></g>
<g><path style="opacity:1" fill="#9f646f" d="M 303.5,58.5 C 318.833,58.5 334.167,58.5 349.5,58.5C 351.25,59.6594 352.25,61.326 352.5,63.5C 350.952,63.1788 350.285,62.1788 350.5,60.5C 335.485,60.1673 320.485,60.5007 305.5,61.5C 306.127,62.4168 306.461,63.4168 306.5,64.5C 304.755,62.9674 303.755,60.9674 303.5,58.5 Z"/></g>
<g><path style="opacity:0.997" fill="#eeeded" d="M 232.5,58.5 C 256.167,58.5 279.833,58.5 303.5,58.5C 303.755,60.9674 304.755,62.9674 306.5,64.5C 306.932,65.7095 307.599,66.7095 308.5,67.5C 318.293,84.1016 327.793,100.768 337,117.5C 337.494,119.134 337.66,120.801 337.5,122.5C 335.231,124.242 333.898,126.576 333.5,129.5C 330.663,131.847 328.83,134.847 328,138.5C 327,139.5 326,140.5 325,141.5C 318.266,153.394 311.766,165.394 305.5,177.5C 304.599,178.29 303.932,179.29 303.5,180.5C 280.167,180.5 256.833,180.5 233.5,180.5C 231.5,177.833 229.5,175.167 227.5,172.5C 227.657,171.127 227.49,169.793 227,168.5C 223.928,163.152 220.428,158.152 216.5,153.5C 216.25,151.326 215.25,149.659 213.5,148.5C 212.97,146.076 212.136,143.743 211,141.5C 209.252,138.709 207.419,136.042 205.5,133.5C 205.167,133.5 204.833,133.5 204.5,133.5C 204,128.985 202,125.318 198.5,122.5C 198.5,121.167 198.5,119.833 198.5,118.5C 199.167,117.167 199.833,115.833 200.5,114.5C 202.863,111.451 204.863,108.118 206.5,104.5C 207.793,102.192 209.126,99.8583 210.5,97.5C 215.402,89.3681 220.069,81.0347 224.5,72.5C 225.172,71.7326 226.005,71.0659 227,70.5C 228.588,66.3283 230.421,62.3283 232.5,58.5 Z M 261.5,90.5 C 284.473,89.6422 296.306,100.642 297,123.5C 292.599,142.228 280.766,151.062 261.5,150C 244.438,143.697 236.605,131.531 238,113.5C 241.894,101.635 249.727,93.9682 261.5,90.5 Z"/></g>
<g><path style="opacity:1" fill="#d54437" d="M 376.5,108.5 C 378.922,111.282 379.922,114.615 379.5,118.5C 379.04,123.208 378.373,127.874 377.5,132.5C 376.341,133.456 375.174,134.456 374,135.5C 373.228,135.355 372.561,135.022 372,134.5C 372.81,137.157 372.644,139.823 371.5,142.5C 370.527,143.791 369.527,143.791 368.5,142.5C 367.257,146.914 365.757,151.247 364,155.5C 362.989,156.337 361.822,156.67 360.5,156.5C 359.594,159.436 358.928,162.436 358.5,165.5C 358.5,165.833 358.5,166.167 358.5,166.5C 355.687,167.446 354.354,169.446 354.5,172.5C 350.684,173.09 349.017,175.423 349.5,179.5C 348.448,179.351 347.448,179.517 346.5,180C 348.161,183.15 347.161,184.65 343.5,184.5C 343.5,187.167 343.5,189.833 343.5,192.5C 342.833,193.833 342.167,195.167 341.5,196.5C 339.554,197.035 338.554,198.368 338.5,200.5C 337.89,201.391 337.557,202.391 337.5,203.5C 336.292,204.234 334.959,204.567 333.5,204.5C 332.833,207.5 332.167,210.5 331.5,213.5C 331.672,214.492 331.338,215.158 330.5,215.5C 329.209,215.263 328.209,215.596 327.5,216.5C 326.167,216.5 324.833,216.5 323.5,216.5C 323.5,217.5 323.5,218.5 323.5,219.5C 309.833,219.5 296.167,219.5 282.5,219.5C 284.3,217.172 285.467,214.505 286,211.5C 287.351,209.981 288.851,208.648 290.5,207.5C 292.822,202.979 294.989,198.312 297,193.5C 301.329,191.023 303.162,187.357 302.5,182.5C 302.833,181.833 303.167,181.167 303.5,180.5C 303.932,179.29 304.599,178.29 305.5,177.5C 306.583,177.461 307.583,177.127 308.5,176.5C 308.809,172.667 310.642,170 314,168.5C 314.414,168.957 314.914,169.291 315.5,169.5C 316.449,166.874 316.449,164.208 315.5,161.5C 316.822,161.67 317.989,161.337 319,160.5C 322.414,150.779 327.081,141.779 333,133.5C 333.49,132.207 333.657,130.873 333.5,129.5C 333.898,126.576 335.231,124.242 337.5,122.5C 339.377,121.341 339.877,119.674 339,117.5C 336.487,112.463 333.487,107.796 330,103.5C 329.052,99.832 328.219,96.1654 327.5,92.5C 326.5,92.5 325.5,92.5 324.5,92.5C 324.649,91.448 324.483,90.448 324,89.5C 320.861,85.1949 317.861,80.8616 315,76.5C 314.506,74.8659 314.34,73.1992 314.5,71.5C 313.5,71.5 312.5,71.5 311.5,71.5C 311.532,69.3812 310.532,68.0478 308.5,67.5C 308.167,65.5 307.833,63.5 307.5,61.5C 321.5,61.5 335.5,61.5 349.5,61.5C 349.906,64.9157 351.573,67.5824 354.5,69.5C 355.204,72.7041 355.87,75.8708 356.5,79C 355.437,80.1882 354.103,80.6882 352.5,80.5C 352.337,82.8568 352.503,85.1902 353,87.5C 354.681,85.4518 356.181,83.2852 357.5,81C 358.549,80.5078 359.549,80.6744 360.5,81.5C 362.821,84.3833 363.988,87.7167 364,91.5C 365.16,89.203 366.16,89.5363 367,92.5C 367.595,93.8989 367.428,95.2322 366.5,96.5C 367.603,96.9976 368.603,97.3309 369.5,97.5C 369.013,98.4461 368.68,99.4461 368.5,100.5C 369.546,104.879 372.212,107.546 376.5,108.5 Z"/></g>
<g><path style="opacity:0.216" fill="#e79d9d" d="M 352.5,64.5 C 353.906,64.9731 354.573,65.9731 354.5,67.5C 353.094,67.0269 352.427,66.0269 352.5,64.5 Z"/></g>
<g><path style="opacity:1" fill="#5d88de" d="M 183.5,64.5 C 183.674,66.861 184.007,69.1944 184.5,71.5C 182.661,72.5077 181.328,74.0077 180.5,76C 178.899,76.2734 177.399,76.7734 176,77.5C 176.487,79.0438 176.987,80.7105 177.5,82.5C 176.167,81.8333 175.167,80.8333 174.5,79.5C 176.619,75.2619 178.786,70.9286 181,66.5C 181.708,65.6195 182.542,64.9528 183.5,64.5 Z"/></g>
<g><path style="opacity:0.439" fill="#f3b3ae" d="M 358.5,74.5 C 360.262,75.2623 361.262,76.5956 361.5,78.5C 359.738,77.7377 358.738,76.4044 358.5,74.5 Z"/></g>
<g><path style="opacity:0.518" fill="#ddc98e" d="M 174.5,79.5 C 175.167,80.8333 176.167,81.8333 177.5,82.5C 178.11,83.391 178.443,84.391 178.5,85.5C 175.549,82.8049 172.882,83.1382 170.5,86.5C 171.584,83.9959 172.917,81.6626 174.5,79.5 Z"/></g>
<g><path style="opacity:1" fill="#5e8fe3" d="M 224.5,72.5 C 220.069,81.0347 215.402,89.3681 210.5,97.5C 211.059,94.4836 211.725,91.4836 212.5,88.5C 213.325,87.6143 214.325,87.281 215.5,87.5C 216.368,84.1574 217.368,80.824 218.5,77.5C 219.274,76.2888 220.107,76.2888 221,77.5C 221.549,75.2404 222.716,73.5738 224.5,72.5 Z"/></g>
<g><path style="opacity:1" fill="#b5af7f" d="M 179.5,87.5 C 180.793,89.8083 182.126,92.1417 183.5,94.5C 182.833,94.1667 182.167,93.8333 181.5,93.5C 179.919,91.8583 179.253,89.8583 179.5,87.5 Z"/></g>
<g><path style="opacity:1" fill="#c45048" d="M 308.5,67.5 C 310.532,68.0478 311.532,69.3812 311.5,71.5C 312.5,71.5 313.5,71.5 314.5,71.5C 314.34,73.1992 314.506,74.8659 315,76.5C 317.861,80.8616 320.861,85.1949 324,89.5C 324.483,90.448 324.649,91.448 324.5,92.5C 325.5,92.5 326.5,92.5 327.5,92.5C 328.219,96.1654 329.052,99.832 330,103.5C 333.487,107.796 336.487,112.463 339,117.5C 339.877,119.674 339.377,121.341 337.5,122.5C 337.66,120.801 337.494,119.134 337,117.5C 327.793,100.768 318.293,84.1016 308.5,67.5 Z"/></g>
<g><path style="opacity:1" fill="#fbcf54" d="M 178.5,85.5 C 178.328,86.4916 178.662,87.1583 179.5,87.5C 179.253,89.8583 179.919,91.8583 181.5,93.5C 178.224,92.8784 176.891,90.8784 177.5,87.5C 176.325,87.281 175.325,87.6143 174.5,88.5C 174.511,96.6522 170.511,101.152 162.5,102C 161.736,104.069 161.236,106.236 161,108.5C 160.329,107.748 159.496,107.414 158.5,107.5C 162.134,100.233 166.134,93.2333 170.5,86.5C 172.882,83.1382 175.549,82.8049 178.5,85.5 Z"/></g>
<g><path style="opacity:1" fill="#fdcd43" d="M 181.5,93.5 C 182.167,93.8333 182.833,94.1667 183.5,94.5C 183.755,96.9674 184.755,98.9674 186.5,100.5C 186.913,102.89 187.579,105.223 188.5,107.5C 191.863,112.52 195.196,117.52 198.5,122.5C 199.778,124.823 200.778,127.323 201.5,130C 200.453,131.578 200.453,133.078 201.5,134.5C 202.213,132.565 203.213,132.232 204.5,133.5C 204.833,133.5 205.167,133.5 205.5,133.5C 205.913,135.89 206.579,138.223 207.5,140.5C 209.111,143.446 211.111,146.113 213.5,148.5C 215.25,149.659 216.25,151.326 216.5,153.5C 216.343,154.873 216.51,156.207 217,157.5C 220.143,162.798 223.643,167.798 227.5,172.5C 227.954,178.48 230.954,182.146 236.5,183.5C 240.309,187.729 244.142,192.063 248,196.5C 249.316,193.972 250.483,193.972 251.5,196.5C 252.192,195.975 252.692,195.308 253,194.5C 254.372,197.785 256.039,198.451 258,196.5C 260.22,197.932 261.72,199.932 262.5,202.5C 263.5,202 264.5,201.5 265.5,201C 264.304,200.346 264.304,199.846 265.5,199.5C 266.5,200 267.5,200.5 268.5,201C 264.633,202.987 264.633,203.487 268.5,202.5C 269.354,203.522 270.354,204.355 271.5,205C 269.403,206.61 267.07,207.777 264.5,208.5C 265.391,209.59 266.391,209.59 267.5,208.5C 268.228,210.193 269.228,211.693 270.5,213C 269.197,213.21 267.864,213.043 266.5,212.5C 265.833,212.833 265.167,213.167 264.5,213.5C 265.641,214.425 265.641,215.259 264.5,216C 266.432,216.138 268.266,215.638 270,214.5C 270.089,216.113 269.255,217.28 267.5,218C 268.833,218 270.167,218 271.5,218C 268.381,219.405 265.048,219.905 261.5,219.5C 245.163,219.667 228.83,219.5 212.5,219C 211.383,217.108 209.716,216.275 207.5,216.5C 204.647,215.167 202.981,212.834 202.5,209.5C 202.316,206.663 200.982,204.663 198.5,203.5C 196.045,199.716 194.045,195.716 192.5,191.5C 191.416,188.996 190.083,186.663 188.5,184.5C 187.083,181.331 185.417,178.331 183.5,175.5C 182.282,170.983 179.948,167.316 176.5,164.5C 174.896,163.713 174.229,162.38 174.5,160.5C 169.855,151.32 165.355,141.987 161,132.5C 155.737,127.679 154.07,121.679 156,114.5C 158.137,112.679 158.97,110.346 158.5,107.5C 159.496,107.414 160.329,107.748 161,108.5C 161.236,106.236 161.736,104.069 162.5,102C 170.511,101.152 174.511,96.6522 174.5,88.5C 175.325,87.6143 176.325,87.281 177.5,87.5C 176.891,90.8784 178.224,92.8784 181.5,93.5 Z"/></g>
<g><path style="opacity:1" fill="#457de4" d="M 184.5,71.5 C 185.688,72.3636 186.855,73.3636 188,74.5C 189.368,75.9931 189.535,77.4931 188.5,79C 189.931,79.4652 191.097,80.2986 192,81.5C 192.249,80.376 192.749,79.376 193.5,78.5C 193.736,79.2472 194.07,80.0805 194.5,81C 195.76,82.113 196.927,82.2797 198,81.5C 198.54,83.1346 198.04,84.4679 196.5,85.5C 197.167,86.8333 197.833,88.1667 198.5,89.5C 197.41,90.6086 197.41,91.6086 198.5,92.5C 199.776,87.3183 200.443,87.3183 200.5,92.5C 201.5,92.5 202.5,92.5 203.5,92.5C 203.151,98.146 204.651,98.8127 208,94.5C 208.167,94.8333 208.333,95.1667 208.5,95.5C 206.73,98.1934 206.063,101.193 206.5,104.5C 204.863,108.118 202.863,111.451 200.5,114.5C 199.265,114.279 198.265,113.612 197.5,112.5C 196.914,112.709 196.414,113.043 196,113.5C 195.51,112.207 195.343,110.873 195.5,109.5C 194.5,109.5 193.5,109.5 192.5,109.5C 192.5,109.167 192.5,108.833 192.5,108.5C 191.149,105.961 189.982,103.294 189,100.5C 188.329,99.7476 187.496,99.4142 186.5,99.5C 186.727,97.0672 185.727,95.4006 183.5,94.5C 182.126,92.1417 180.793,89.8083 179.5,87.5C 178.662,87.1583 178.328,86.4916 178.5,85.5C 178.443,84.391 178.11,83.391 177.5,82.5C 176.987,80.7105 176.487,79.0438 176,77.5C 177.399,76.7734 178.899,76.2734 180.5,76C 181.328,74.0077 182.661,72.5077 184.5,71.5 Z"/></g>
<g><path style="opacity:1" fill="#ce5042" d="M 352.5,63.5 C 352.5,63.8333 352.5,64.1667 352.5,64.5C 352.427,66.0269 353.094,67.0269 354.5,67.5C 356.588,69.3356 357.921,71.6689 358.5,74.5C 358.738,76.4044 359.738,77.7377 361.5,78.5C 366.768,87.3707 371.768,96.3707 376.5,105.5C 376.5,106.5 376.5,107.5 376.5,108.5C 372.212,107.546 369.546,104.879 368.5,100.5C 368.68,99.4461 369.013,98.4461 369.5,97.5C 368.603,97.3309 367.603,96.9976 366.5,96.5C 367.428,95.2322 367.595,93.8989 367,92.5C 366.16,89.5363 365.16,89.203 364,91.5C 363.988,87.7167 362.821,84.3833 360.5,81.5C 359.549,80.6744 358.549,80.5078 357.5,81C 356.181,83.2852 354.681,85.4518 353,87.5C 352.503,85.1902 352.337,82.8568 352.5,80.5C 354.103,80.6882 355.437,80.1882 356.5,79C 355.87,75.8708 355.204,72.7041 354.5,69.5C 351.573,67.5824 349.906,64.9157 349.5,61.5C 335.5,61.5 321.5,61.5 307.5,61.5C 307.833,63.5 308.167,65.5 308.5,67.5C 307.599,66.7095 306.932,65.7095 306.5,64.5C 306.461,63.4168 306.127,62.4168 305.5,61.5C 320.485,60.5007 335.485,60.1673 350.5,60.5C 350.285,62.1788 350.952,63.1788 352.5,63.5 Z"/></g>
<g><path style="opacity:1" fill="#a09883" d="M 183.5,94.5 C 185.727,95.4006 186.727,97.0672 186.5,99.5C 186.5,99.8333 186.5,100.167 186.5,100.5C 184.755,98.9674 183.755,96.9674 183.5,94.5 Z"/></g>
<g><path style="opacity:1" fill="#667daa" d="M 186.5,100.5 C 186.5,100.167 186.5,99.8333 186.5,99.5C 187.496,99.4142 188.329,99.7476 189,100.5C 189.982,103.294 191.149,105.961 192.5,108.5C 190.001,106.15 188.001,103.484 186.5,100.5 Z"/></g>
<g><path style="opacity:1" fill="#dac06f" d="M 186.5,100.5 C 188.001,103.484 190.001,106.15 192.5,108.5C 192.5,108.833 192.5,109.167 192.5,109.5C 193.791,113.097 195.791,116.097 198.5,118.5C 198.5,119.833 198.5,121.167 198.5,122.5C 195.196,117.52 191.863,112.52 188.5,107.5C 187.579,105.223 186.913,102.89 186.5,100.5 Z"/></g>
<g><path style="opacity:1" fill="#5b7dc6" d="M 192.5,109.5 C 193.5,109.5 194.5,109.5 195.5,109.5C 195.343,110.873 195.51,112.207 196,113.5C 196.414,113.043 196.914,112.709 197.5,112.5C 198.265,113.612 199.265,114.279 200.5,114.5C 199.833,115.833 199.167,117.167 198.5,118.5C 195.791,116.097 193.791,113.097 192.5,109.5 Z"/></g>
<g><path style="opacity:1" fill="#f1d074" d="M 158.5,107.5 C 158.97,110.346 158.137,112.679 156,114.5C 154.07,121.679 155.737,127.679 161,132.5C 165.355,141.987 169.855,151.32 174.5,160.5C 168.108,150.731 161.941,140.731 156,130.5C 152.166,122.184 153,114.517 158.5,107.5 Z"/></g>
<g><path style="opacity:1" fill="#cf6155" d="M 376.5,105.5 C 382.815,113.006 383.981,121.34 380,130.5C 379.292,131.381 378.458,132.047 377.5,132.5C 378.373,127.874 379.04,123.208 379.5,118.5C 379.922,114.615 378.922,111.282 376.5,108.5C 376.5,107.5 376.5,106.5 376.5,105.5 Z"/></g>
<g><path style="opacity:1" fill="#f3c961" d="M 198.5,122.5 C 202,125.318 204,128.985 204.5,133.5C 203.213,132.232 202.213,132.565 201.5,134.5C 200.453,133.078 200.453,131.578 201.5,130C 200.778,127.323 199.778,124.823 198.5,122.5 Z"/></g>
<g><path style="opacity:1" fill="#c9554b" d="M 333.5,129.5 C 333.657,130.873 333.49,132.207 333,133.5C 327.081,141.779 322.414,150.779 319,160.5C 317.989,161.337 316.822,161.67 315.5,161.5C 316.449,164.208 316.449,166.874 315.5,169.5C 314.914,169.291 314.414,168.957 314,168.5C 310.642,170 308.809,172.667 308.5,176.5C 307.583,177.127 306.583,177.461 305.5,177.5C 311.766,165.394 318.266,153.394 325,141.5C 326,140.5 327,139.5 328,138.5C 328.83,134.847 330.663,131.847 333.5,129.5 Z"/></g>
<g><path style="opacity:1" fill="#cf665d" d="M 377.5,132.5 C 376.502,136.505 374.502,139.839 371.5,142.5C 372.644,139.823 372.81,137.157 372,134.5C 372.561,135.022 373.228,135.355 374,135.5C 375.174,134.456 376.341,133.456 377.5,132.5 Z"/></g>
<g><path style="opacity:1" fill="#eecc70" d="M 205.5,133.5 C 207.419,136.042 209.252,138.709 211,141.5C 212.136,143.743 212.97,146.076 213.5,148.5C 211.111,146.113 209.111,143.446 207.5,140.5C 206.579,138.223 205.913,135.89 205.5,133.5 Z"/></g>
<g><path style="opacity:1" fill="#ebcb6c" d="M 216.5,153.5 C 220.428,158.152 223.928,163.152 227,168.5C 227.49,169.793 227.657,171.127 227.5,172.5C 223.643,167.798 220.143,162.798 217,157.5C 216.51,156.207 216.343,154.873 216.5,153.5 Z"/></g>
<g><path style="opacity:0.996" fill="#d47068" d="M 371.5,142.5 C 369.203,147.007 367.036,151.674 365,156.5C 362.697,159.507 360.531,162.507 358.5,165.5C 358.928,162.436 359.594,159.436 360.5,156.5C 361.822,156.67 362.989,156.337 364,155.5C 365.757,151.247 367.257,146.914 368.5,142.5C 369.527,143.791 370.527,143.791 371.5,142.5 Z"/></g>
<g><path style="opacity:0.8" fill="#efd174" d="M 176.5,164.5 C 179.948,167.316 182.282,170.983 183.5,175.5C 180.432,172.378 178.098,168.711 176.5,164.5 Z"/></g>
<g><path style="opacity:0.757" fill="#f4d795" d="M 183.5,175.5 C 185.417,178.331 187.083,181.331 188.5,184.5C 185.55,182.272 183.884,179.272 183.5,175.5 Z"/></g>
<g><path style="opacity:1" fill="#d16458" d="M 358.5,166.5 C 354.494,173.54 350.494,180.54 346.5,187.5C 345.094,187.973 344.427,188.973 344.5,190.5C 344.672,191.492 344.338,192.158 343.5,192.5C 343.5,189.833 343.5,187.167 343.5,184.5C 347.161,184.65 348.161,183.15 346.5,180C 347.448,179.517 348.448,179.351 349.5,179.5C 349.017,175.423 350.684,173.09 354.5,172.5C 354.354,169.446 355.687,167.446 358.5,166.5 Z"/></g>
<g><path style="opacity:1" fill="#d9b16e" d="M 233.5,180.5 C 256.833,180.5 280.167,180.5 303.5,180.5C 303.167,181.167 302.833,181.833 302.5,182.5C 302.167,182.5 301.833,182.5 301.5,182.5C 279.164,182.667 256.831,182.5 234.5,182C 233.944,181.617 233.611,181.117 233.5,180.5 Z"/></g>
<g><path style="opacity:0.506" fill="#f0d195" d="M 188.5,184.5 C 190.083,186.663 191.416,188.996 192.5,191.5C 189.888,189.948 188.555,187.614 188.5,184.5 Z"/></g>
<g><path style="opacity:1" fill="#e8a93e" d="M 227.5,172.5 C 229.5,175.167 231.5,177.833 233.5,180.5C 233.611,181.117 233.944,181.617 234.5,182C 256.831,182.5 279.164,182.667 301.5,182.5C 296.899,192.051 291.566,201.051 285.5,209.5C 284.864,211.78 283.864,213.78 282.5,215.5C 282.933,212.834 283.433,210.168 284,207.5C 285.333,206.833 286.667,206.167 288,205.5C 288.436,203.153 288.936,200.819 289.5,198.5C 288.779,195.436 287.445,192.769 285.5,190.5C 285.529,188.971 286.196,187.804 287.5,187C 284.331,186.166 281.164,185.332 278,184.5C 276.893,184.585 275.893,184.919 275,185.5C 262.268,183.953 249.435,183.287 236.5,183.5C 230.954,182.146 227.954,178.48 227.5,172.5 Z"/></g>
<g><path style="opacity:0.055" fill="#eebeba" d="M 346.5,187.5 C 346.573,189.027 345.906,190.027 344.5,190.5C 344.427,188.973 345.094,187.973 346.5,187.5 Z"/></g>
<g><path style="opacity:1" fill="#f3ba3a" d="M 236.5,183.5 C 249.435,183.287 262.268,183.953 275,185.5C 275.893,184.919 276.893,184.585 278,184.5C 281.164,185.332 284.331,186.166 287.5,187C 286.196,187.804 285.529,188.971 285.5,190.5C 287.445,192.769 288.779,195.436 289.5,198.5C 288.936,200.819 288.436,203.153 288,205.5C 286.667,206.167 285.333,206.833 284,207.5C 283.433,210.168 282.933,212.834 282.5,215.5C 281.559,217.05 280.893,218.716 280.5,220.5C 274.167,220.5 267.833,220.5 261.5,220.5C 261.5,220.167 261.5,219.833 261.5,219.5C 265.048,219.905 268.381,219.405 271.5,218C 270.167,218 268.833,218 267.5,218C 269.255,217.28 270.089,216.113 270,214.5C 268.266,215.638 266.432,216.138 264.5,216C 265.641,215.259 265.641,214.425 264.5,213.5C 265.167,213.167 265.833,212.833 266.5,212.5C 267.864,213.043 269.197,213.21 270.5,213C 269.228,211.693 268.228,210.193 267.5,208.5C 266.391,209.59 265.391,209.59 264.5,208.5C 267.07,207.777 269.403,206.61 271.5,205C 270.354,204.355 269.354,203.522 268.5,202.5C 264.633,203.487 264.633,202.987 268.5,201C 267.5,200.5 266.5,200 265.5,199.5C 264.304,199.846 264.304,200.346 265.5,201C 264.5,201.5 263.5,202 262.5,202.5C 261.72,199.932 260.22,197.932 258,196.5C 256.039,198.451 254.372,197.785 253,194.5C 252.692,195.308 252.192,195.975 251.5,196.5C 250.483,193.972 249.316,193.972 248,196.5C 244.142,192.063 240.309,187.729 236.5,183.5 Z"/></g>
<g><path style="opacity:0.067" fill="#e0a097" d="M 341.5,196.5 C 340.974,198.23 339.974,199.564 338.5,200.5C 338.554,198.368 339.554,197.035 341.5,196.5 Z"/></g>
<g><path style="opacity:0.875" fill="#edd08e" d="M 198.5,203.5 C 200.982,204.663 202.316,206.663 202.5,209.5C 200.808,207.795 199.475,205.795 198.5,203.5 Z"/></g>
<g><path style="opacity:0.988" fill="#d68078" d="M 337.5,203.5 C 335.497,206.841 333.497,210.175 331.5,213.5C 332.167,210.5 332.833,207.5 333.5,204.5C 334.959,204.567 336.292,204.234 337.5,203.5 Z"/></g>
<g><path style="opacity:1" fill="#ce5628" d="M 301.5,182.5 C 301.833,182.5 302.167,182.5 302.5,182.5C 303.162,187.357 301.329,191.023 297,193.5C 294.989,198.312 292.822,202.979 290.5,207.5C 288.851,208.648 287.351,209.981 286,211.5C 285.467,214.505 284.3,217.172 282.5,219.5C 282.158,220.338 281.492,220.672 280.5,220.5C 280.893,218.716 281.559,217.05 282.5,215.5C 283.864,213.78 284.864,211.78 285.5,209.5C 291.566,201.051 296.899,192.051 301.5,182.5 Z"/></g>
<g><path style="opacity:0.463" fill="#d37f79" d="M 330.5,215.5 C 329.061,217.36 327.395,219.027 325.5,220.5C 325.527,218.801 326.194,217.467 327.5,216.5C 328.209,215.596 329.209,215.263 330.5,215.5 Z"/></g>
<g><path style="opacity:1" fill="#f3c853" d="M 207.5,216.5 C 209.716,216.275 211.383,217.108 212.5,219C 228.83,219.5 245.163,219.667 261.5,219.5C 261.5,219.833 261.5,220.167 261.5,220.5C 245.167,220.5 228.833,220.5 212.5,220.5C 209.796,220.33 208.129,218.997 207.5,216.5 Z"/></g>
<g><path style="opacity:1" fill="#ce675b" d="M 327.5,216.5 C 326.194,217.467 325.527,218.801 325.5,220.5C 322.252,221.376 318.919,222.043 315.5,222.5C 306.917,222.543 298.25,222.21 289.5,221.5C 286.287,221.81 283.287,221.477 280.5,220.5C 281.492,220.672 282.158,220.338 282.5,219.5C 296.167,219.5 309.833,219.5 323.5,219.5C 323.5,218.5 323.5,217.5 323.5,216.5C 324.833,216.5 326.167,216.5 327.5,216.5 Z"/></g>
<g><path style="opacity:0.502" fill="#e9c47e" d="M 212.5,220.5 C 228.833,220.5 245.167,220.5 261.5,220.5C 267.833,220.5 274.167,220.5 280.5,220.5C 283.287,221.477 286.287,221.81 289.5,221.5C 269.266,222.176 249.266,222.509 229.5,222.5C 223.702,221.874 218.036,221.207 212.5,220.5 Z"/></g>
<g><path style="opacity:0.21" fill="#c5c5c5" d="M 208.5,263.5 C 213.262,262.109 217.928,262.442 222.5,264.5C 217.859,263.873 213.193,263.54 208.5,263.5 Z"/></g>
<g><path style="opacity:0.02" fill="#dcdcdc" d="M 407.5,268.5 C 409.607,267.532 411.941,267.198 414.5,267.5C 414.5,270.167 414.5,272.833 414.5,275.5C 413.532,273.393 413.198,271.059 413.5,268.5C 411.5,268.5 409.5,268.5 407.5,268.5 Z"/></g>
<g><path style="opacity:0.992" fill="#6d6d6d" d="M 231.5,264.5 C 233.167,264.5 234.833,264.5 236.5,264.5C 236.5,277.167 236.5,289.833 236.5,302.5C 234.833,302.5 233.167,302.5 231.5,302.5C 231.5,289.833 231.5,277.167 231.5,264.5 Z"/></g>
<g><path style="opacity:1" fill="#797979" d="M 208.5,263.5 C 213.193,263.54 217.859,263.873 222.5,264.5C 228.547,266.996 228.881,269.996 223.5,273.5C 215.069,266.56 207.236,267.227 200,275.5C 199.501,280.489 199.334,285.489 199.5,290.5C 199.5,291.5 199.5,292.5 199.5,293.5C 198.178,293.33 197.011,293.663 196,294.5C 195.583,293.244 194.75,292.577 193.5,292.5C 191.883,285.338 192.383,278.338 195,271.5C 198.265,266.622 202.765,263.955 208.5,263.5 Z"/></g>
<g><path style="opacity:0.076" fill="#dedede" d="M 231.5,264.5 C 233.265,263.539 235.265,263.205 237.5,263.5C 237.829,276.677 237.495,289.677 236.5,302.5C 236.5,289.833 236.5,277.167 236.5,264.5C 234.833,264.5 233.167,264.5 231.5,264.5 Z"/></g>
<g><path style="opacity:0.327" fill="#afafaf" d="M 318.5,301.5 C 318.811,300.522 319.478,299.855 320.5,299.5C 321.842,301.005 323.508,301.672 325.5,301.5C 325.5,289.167 325.5,276.833 325.5,264.5C 324.167,264.5 322.833,264.5 321.5,264.5C 321.5,269.167 321.5,273.833 321.5,278.5C 320.209,278.737 319.209,278.404 318.5,277.5C 320.436,273.285 321.103,268.619 320.5,263.5C 322.5,263.5 324.5,263.5 326.5,263.5C 326.5,276.5 326.5,289.5 326.5,302.5C 323.763,302.599 321.096,302.265 318.5,301.5 Z"/></g>
<g><path style="opacity:0.992" fill="#747374" d="M 407.5,268.5 C 409.5,268.5 411.5,268.5 413.5,268.5C 413.198,271.059 413.532,273.393 414.5,275.5C 416.5,275.5 418.5,275.5 420.5,275.5C 420.5,277.5 420.5,279.5 420.5,281.5C 419.167,281.5 417.833,281.5 416.5,281.5C 415.791,280.596 414.791,280.263 413.5,280.5C 413.179,286.026 413.512,291.36 414.5,296.5C 418.848,296.729 420.848,299.062 420.5,303.5C 417.119,303.54 413.786,303.207 410.5,302.5C 410.771,300.62 410.104,299.287 408.5,298.5C 408.666,293.489 408.499,288.489 408,283.5C 406.951,281.893 405.451,281.227 403.5,281.5C 403.5,279.5 403.5,277.5 403.5,275.5C 405.167,275.5 406.833,275.5 408.5,275.5C 408.326,273.139 407.993,270.806 407.5,268.5 Z"/></g>
<g><path style="opacity:0.231" fill="#c9c9c9" d="M 364.5,271.5 C 365.634,273.966 365.801,276.633 365,279.5C 364.623,280.942 363.79,281.942 362.5,282.5C 364.092,279.034 364.758,275.367 364.5,271.5 Z"/></g>
<g><path style="opacity:0.078" fill="#e3e3e3" d="M 433.5,271.5 C 433.5,272.833 433.5,274.167 433.5,275.5C 434.833,275.5 436.167,275.5 437.5,275.5C 436.081,276.451 434.415,276.784 432.5,276.5C 432.216,274.585 432.549,272.919 433.5,271.5 Z"/></g>
<g><path style="opacity:0.294" fill="#b9b9b9" d="M 357.5,264.5 C 351.5,264.5 345.5,264.5 339.5,264.5C 339.5,277.167 339.5,289.833 339.5,302.5C 338.505,289.677 338.171,276.677 338.5,263.5C 345.022,263.177 351.355,263.51 357.5,264.5 Z"/></g>
<g><path style="opacity:1" fill="#7b7b7b" d="M 451.5,274.5 C 458.689,273.601 463.856,276.268 467,282.5C 470.804,294.916 466.471,302.25 454,304.5C 449.74,303.786 445.906,302.119 442.5,299.5C 441.493,296.156 440.493,292.823 439.5,289.5C 440.164,285.675 441.331,282.008 443,278.5C 445.778,276.848 448.611,275.514 451.5,274.5 Z M 452.5,280.5 C 461.75,282.072 464.25,287.072 460,295.5C 456.641,299.089 452.974,299.422 449,296.5C 444.949,289.74 446.116,284.407 452.5,280.5 Z"/></g>
<g><path style="opacity:1" fill="#868686" d="M 314.5,275.5 C 312.801,275.34 311.134,275.506 309.5,276C 310.5,276.333 311.5,276.667 312.5,277C 311.328,277.419 310.328,278.085 309.5,279C 311.974,279.037 313.974,279.87 315.5,281.5C 313.863,280.782 312.197,280.616 310.5,281C 308.195,282.626 306.195,284.46 304.5,286.5C 303.925,284.798 303.092,283.131 302,281.5C 301.292,282.381 300.458,283.047 299.5,283.5C 302.248,276.295 307.248,273.629 314.5,275.5 Z"/></g>
<g><path style="opacity:0.442" fill="#a7a7a7" d="M 48.5,280.5 C 41.5878,279.538 34.5878,279.205 27.5,279.5C 27.5,281.5 27.5,283.5 27.5,285.5C 26.5318,283.393 26.1984,281.059 26.5,278.5C 34.2428,277.87 41.5762,278.537 48.5,280.5 Z"/></g>
<g><path style="opacity:0.386" fill="#b4b4b4" d="M 6.5,272.5 C 5.87344,277.141 5.54011,281.807 5.5,286.5C 4.10872,281.738 4.44205,277.072 6.5,272.5 Z"/></g>
<g><path style="opacity:0.4" fill="#b1b1b1" d="M 374.5,273.5 C 373.523,270.713 373.19,267.713 373.5,264.5C 371.833,264.5 370.167,264.5 368.5,264.5C 368.5,276.833 368.5,289.167 368.5,301.5C 370.554,301.635 372.221,300.968 373.5,299.5C 373.5,300.5 373.5,301.5 373.5,302.5C 371.5,302.5 369.5,302.5 367.5,302.5C 367.5,289.5 367.5,276.5 367.5,263.5C 369.833,263.5 372.167,263.5 374.5,263.5C 374.5,266.833 374.5,270.167 374.5,273.5 Z"/></g>
<g><path style="opacity:0.767" fill="#8f8f8f" d="M 495.5,275.5 C 496.222,275.918 496.722,276.584 497,277.5C 497.816,276.177 498.983,275.511 500.5,275.5C 500.389,276.117 500.056,276.617 499.5,277C 500.591,278.55 501.924,279.717 503.5,280.5C 500.805,280.933 498.638,282.266 497,284.5C 496.501,290.491 496.334,296.491 496.5,302.5C 494.833,302.5 493.167,302.5 491.5,302.5C 491.5,302.167 491.5,301.833 491.5,301.5C 492.833,301.5 494.167,301.5 495.5,301.5C 495.594,294.653 495.594,287.986 495.5,281.5C 496.5,280.833 497.5,280.167 498.5,279.5C 497.726,278.289 496.893,278.289 496,279.5C 495.51,278.207 495.343,276.873 495.5,275.5 Z"/></g>
<g><path style="opacity:0.016" fill="#f6f4f4" d="M 416.5,281.5 C 414.558,286.056 413.892,291.056 414.5,296.5C 413.512,291.36 413.179,286.026 413.5,280.5C 414.791,280.263 415.791,280.596 416.5,281.5 Z"/></g>
<g><path style="opacity:1" fill="#707070" d="M 433.5,271.5 C 432.549,272.919 432.216,274.585 432.5,276.5C 434.415,276.784 436.081,276.451 437.5,275.5C 439.308,276.918 439.975,278.918 439.5,281.5C 438.5,281.5 437.5,281.5 436.5,281.5C 435.432,280.566 434.099,280.232 432.5,280.5C 432.5,287.833 432.5,295.167 432.5,302.5C 430.833,302.5 429.167,302.5 427.5,302.5C 427.227,295.496 426.894,288.496 426.5,281.5C 424.833,281.5 423.167,281.5 421.5,281.5C 421.5,279.5 421.5,277.5 421.5,275.5C 423.467,275.739 425.301,275.406 427,274.5C 426.969,264.418 431.803,261.085 441.5,264.5C 440.833,265.833 440.167,267.167 439.5,268.5C 437.116,269.011 435.116,270.011 433.5,271.5 Z"/></g>
<g><path style="opacity:0.3" fill="#b6b6b6" d="M 528.5,277.5 C 529.931,277.881 530.764,278.881 531,280.5C 531.499,284.821 531.666,289.154 531.5,293.5C 530.936,288.175 529.936,282.842 528.5,277.5 Z"/></g>
<g><path style="opacity:0.986" fill="#757575" d="M 40.5,287.5 C 41.0431,287.44 41.3764,287.107 41.5,286.5C 36.8804,285.507 32.2137,285.173 27.5,285.5C 27.5,283.5 27.5,281.5 27.5,279.5C 34.5878,279.205 41.5878,279.538 48.5,280.5C 48.5,282.833 48.5,285.167 48.5,287.5C 45.7368,298.252 38.7368,303.919 27.5,304.5C 15.5551,303.87 8.2218,297.87 5.5,286.5C 5.54011,281.807 5.87344,277.141 6.5,272.5C 9.33693,265.725 14.3369,261.225 21.5,259C 30.3216,256.713 37.6549,258.88 43.5,265.5C 41.0673,270.03 38.0673,270.53 34.5,267C 22.0175,263.472 14.6842,268.139 12.5,281C 13.2457,290.302 18.2457,295.802 27.5,297.5C 31.7955,296.347 35.7955,294.68 39.5,292.5C 39.6287,290.784 39.962,289.117 40.5,287.5 Z"/></g>
<g><path style="opacity:1" fill="#787878" d="M 286.5,302.5 C 282.446,303.496 278.446,303.162 274.5,301.5C 272.73,299.887 271.564,297.887 271,295.5C 270.5,288.842 270.334,282.175 270.5,275.5C 272.833,275.5 275.167,275.5 277.5,275.5C 277.334,281.842 277.5,288.175 278,294.5C 281.533,299.678 285.2,299.678 289,294.5C 289.5,288.175 289.666,281.842 289.5,275.5C 291.5,275.5 293.5,275.5 295.5,275.5C 295.666,284.173 295.5,292.84 295,301.5C 292.281,302.444 289.448,302.777 286.5,302.5 Z"/></g>
<g><path style="opacity:0.986" fill="#777777" d="M 304.5,286.5 C 304.5,288.5 304.5,290.5 304.5,292.5C 302.95,293.441 301.284,294.107 299.5,294.5C 298.167,290.833 298.167,287.167 299.5,283.5C 300.458,283.047 301.292,282.381 302,281.5C 303.092,283.131 303.925,284.798 304.5,286.5 Z"/></g>
<g><path style="opacity:1" fill="#717070" d="M 374.5,273.5 C 374.826,282.349 374.493,291.016 373.5,299.5C 372.221,300.968 370.554,301.635 368.5,301.5C 368.5,289.167 368.5,276.833 368.5,264.5C 370.167,264.5 371.833,264.5 373.5,264.5C 373.19,267.713 373.523,270.713 374.5,273.5 Z"/></g>
<g><path style="opacity:0.031" fill="#e9e9e9" d="M 436.5,281.5 C 435.5,281.5 434.5,281.5 433.5,281.5C 433.825,288.687 433.491,295.687 432.5,302.5C 432.5,295.167 432.5,287.833 432.5,280.5C 434.099,280.232 435.432,280.566 436.5,281.5 Z"/></g>
<g><path style="opacity:0.99" fill="#757575" d="M 472.5,302.5 C 472.5,293.833 472.5,285.167 472.5,276.5C 473.791,276.737 474.791,276.404 475.5,275.5C 476.75,275.577 477.583,276.244 478,277.5C 481.518,274.053 485.018,273.887 488.5,277C 487.852,278.44 487.519,279.94 487.5,281.5C 483.861,281.11 480.695,282.11 478,284.5C 477.501,290.491 477.334,296.491 477.5,302.5C 475.833,302.5 474.167,302.5 472.5,302.5 Z"/></g>
<g><path style="opacity:0.992" fill="#6b6b6b" d="M 494.5,275.5 C 494.833,275.5 495.167,275.5 495.5,275.5C 495.343,276.873 495.51,278.207 496,279.5C 496.893,278.289 497.726,278.289 498.5,279.5C 497.5,280.167 496.5,280.833 495.5,281.5C 495.594,287.986 495.594,294.653 495.5,301.5C 494.167,301.5 492.833,301.5 491.5,301.5C 491.5,293.167 491.5,284.833 491.5,276.5C 492.791,276.737 493.791,276.404 494.5,275.5 Z"/></g>
<g><path style="opacity:0.251" fill="#c9c9c9" d="M 494.5,275.5 C 493.791,276.404 492.791,276.737 491.5,276.5C 491.5,284.833 491.5,293.167 491.5,301.5C 491.5,301.833 491.5,302.167 491.5,302.5C 490.507,293.682 490.173,284.682 490.5,275.5C 491.833,275.5 493.167,275.5 494.5,275.5 Z"/></g>
<g><path style="opacity:0.617" fill="#ababab" d="M 144.5,259.5 C 146.833,259.5 149.167,259.5 151.5,259.5C 151.5,273.833 151.5,288.167 151.5,302.5C 149.167,302.5 146.833,302.5 144.5,302.5C 144.5,288.167 144.5,273.833 144.5,259.5 Z"/></g>
<g><path style="opacity:1" fill="#6c6c6c" d="M 145.5,260.5 C 147.167,260.5 148.833,260.5 150.5,260.5C 150.5,274.167 150.5,287.833 150.5,301.5C 148.833,301.5 147.167,301.5 145.5,301.5C 145.5,287.833 145.5,274.167 145.5,260.5 Z"/></g>
<g><path style="opacity:0.013" fill="#fefffe" d="M 27.5,285.5 C 32.2137,285.173 36.8804,285.507 41.5,286.5C 41.3764,287.107 41.0431,287.44 40.5,287.5C 36.1667,286.833 31.8333,286.167 27.5,285.5 Z"/></g>
<g><path style="opacity:0.051" fill="#b7b7b7" d="M 48.5,280.5 C 49.1667,282.167 49.8333,283.833 50.5,285.5C 50.1667,286.167 49.8333,286.833 49.5,287.5C 49.1667,287.5 48.8333,287.5 48.5,287.5C 48.5,285.167 48.5,282.833 48.5,280.5 Z"/></g>
<g><path style="opacity:0.243" fill="#c7c7c7" d="M 475.5,275.5 C 474.791,276.404 473.791,276.737 472.5,276.5C 472.5,285.167 472.5,293.833 472.5,302.5C 471.507,293.682 471.173,284.682 471.5,275.5C 472.833,275.5 474.167,275.5 475.5,275.5 Z"/></g>
<g><path style="opacity:0.996" fill="#7a7a7a" d="M 386.5,274.5 C 391.376,274.334 395.709,275.668 399.5,278.5C 400.098,279.795 400.598,281.128 401,282.5C 401.5,289.158 401.666,295.825 401.5,302.5C 399.208,302.756 397.041,302.423 395,301.5C 387.727,305.966 381.727,304.633 377,297.5C 376.361,289.132 380.361,284.798 389,284.5C 391.12,285.459 393.287,285.626 395.5,285C 394.663,283.989 394.33,282.822 394.5,281.5C 390.813,279.757 387.479,280.257 384.5,283C 378.88,284.386 377.38,282.552 380,277.5C 382.166,276.269 384.333,275.269 386.5,274.5 Z M 386.5,290.5 C 389.722,290.108 392.722,290.608 395.5,292C 394.569,295.929 392.069,298.095 388,298.5C 382.6,296.794 382.1,294.127 386.5,290.5 Z"/></g>
<g><path style="opacity:0.114" fill="#dadada" d="M 78.5,284.5 C 79.1599,285.964 79.4932,287.631 79.5,289.5C 79.6183,292.486 78.9517,295.152 77.5,297.5C 78.1995,293.202 78.5328,288.869 78.5,284.5 Z"/></g>
<g><path style="opacity:1" fill="#707070" d="M 357.5,264.5 C 360.938,265.693 363.271,268.026 364.5,271.5C 364.758,275.367 364.092,279.034 362.5,282.5C 361.47,285.192 359.47,286.692 356.5,287C 352.848,287.499 349.182,287.665 345.5,287.5C 345.666,291.846 345.499,296.179 345,300.5C 343.599,302.192 341.766,302.859 339.5,302.5C 339.5,289.833 339.5,277.167 339.5,264.5C 345.5,264.5 351.5,264.5 357.5,264.5 Z M 357.5,271.5 C 357.751,273.17 358.418,274.67 359.5,276C 357.7,277.812 356.033,279.645 354.5,281.5C 351.5,281.5 348.5,281.5 345.5,281.5C 345.5,277.5 345.5,273.5 345.5,269.5C 349.813,268.99 353.813,269.657 357.5,271.5 Z"/></g>
<g><path style="opacity:0.173" fill="#c2c2c2" d="M 357.5,271.5 C 353.813,269.657 349.813,268.99 345.5,269.5C 345.5,273.5 345.5,277.5 345.5,281.5C 348.5,281.5 351.5,281.5 354.5,281.5C 351.375,282.479 348.042,282.813 344.5,282.5C 344.5,277.833 344.5,273.167 344.5,268.5C 348.514,268.334 352.514,268.501 356.5,269C 357.252,269.671 357.586,270.504 357.5,271.5 Z"/></g>
<g><path style="opacity:0.971" fill="#787878" d="M 528.5,277.5 C 529.936,282.842 530.936,288.175 531.5,293.5C 533.553,297.948 532.387,301.282 528,303.5C 527.586,303.043 527.086,302.709 526.5,302.5C 525.881,295.782 525.048,289.115 524,282.5C 520.483,279.991 517.483,280.658 515,284.5C 514.501,290.491 514.334,296.491 514.5,302.5C 512.5,302.5 510.5,302.5 508.5,302.5C 508.666,296.824 508.499,291.157 508,285.5C 507.004,283.34 505.504,281.673 503.5,280.5C 501.924,279.717 500.591,278.55 499.5,277C 500.056,276.617 500.389,276.117 500.5,275.5C 505.132,274.032 509.299,275.032 513,278.5C 518.036,273.844 523.203,273.511 528.5,277.5 Z"/></g>
<g><path style="opacity:0.997" fill="#797979" d="M 92.5,274.5 C 103.631,273.553 109.965,278.553 111.5,289.5C 110.449,298.717 105.282,303.717 96,304.5C 83.967,303.123 79.3003,296.456 82,284.5C 83.5595,278.996 87.0595,275.662 92.5,274.5 Z M 93.5,281.5 C 99.2104,280.853 102.544,283.353 103.5,289C 102.728,295.036 99.3948,297.703 93.5,297C 86.8448,291.657 86.8448,286.49 93.5,281.5 Z"/></g>
<g><path style="opacity:0.082" fill="#d4d4d4" d="M 112.5,292.5 C 113.674,293.514 114.34,294.847 114.5,296.5C 112.896,295.713 112.229,294.38 112.5,292.5 Z"/></g>
<g><path style="opacity:1" fill="#727272" d="M 318.5,301.5 C 318.5,302.167 318.167,302.5 317.5,302.5C 315.097,302.448 312.764,302.781 310.5,303.5C 304.694,303.021 301.028,300.021 299.5,294.5C 301.284,294.107 302.95,293.441 304.5,292.5C 307.636,297.879 311.969,299.213 317.5,296.5C 321.915,290.675 321.249,285.675 315.5,281.5C 313.974,279.87 311.974,279.037 309.5,279C 310.328,278.085 311.328,277.419 312.5,277C 311.5,276.667 310.5,276.333 309.5,276C 311.134,275.506 312.801,275.34 314.5,275.5C 316.483,275.157 317.817,275.824 318.5,277.5C 319.209,278.404 320.209,278.737 321.5,278.5C 321.5,273.833 321.5,269.167 321.5,264.5C 322.833,264.5 324.167,264.5 325.5,264.5C 325.5,276.833 325.5,289.167 325.5,301.5C 323.508,301.672 321.842,301.005 320.5,299.5C 319.478,299.855 318.811,300.522 318.5,301.5 Z"/></g>
<g><path style="opacity:0.997" fill="#767676" d="M 78.5,284.5 C 78.5328,288.869 78.1995,293.202 77.5,297.5C 68.4017,306.897 59.5683,306.564 51,296.5C 50.0467,293.568 49.5467,290.568 49.5,287.5C 49.8333,286.833 50.1667,286.167 50.5,285.5C 52.0672,277.928 56.9006,274.262 65,274.5C 72.0379,274.586 76.5379,277.919 78.5,284.5 Z M 61.5,281.5 C 73.3927,282.884 75.3927,288.051 67.5,297C 62.8795,298.538 59.7129,297.038 58,292.5C 56.8824,288.077 58.0491,284.41 61.5,281.5 Z"/></g>
<g><path style="opacity:0.995" fill="#818181" d="M 199.5,290.5 C 204.157,297.061 210.491,299.228 218.5,297C 220.455,296.047 222.122,294.713 223.5,293C 226.322,292.301 227.988,293.468 228.5,296.5C 227.005,299.635 224.505,301.635 221,302.5C 209.137,306.38 199.97,303.047 193.5,292.5C 194.75,292.577 195.583,293.244 196,294.5C 197.011,293.663 198.178,293.33 199.5,293.5C 199.5,292.5 199.5,291.5 199.5,290.5 Z"/></g>
<g><path style="opacity:0.995" fill="#747474" d="M 178.5,295.5 C 178.634,297.292 178.301,298.958 177.5,300.5C 176.713,302.104 175.38,302.771 173.5,302.5C 171.139,302.674 168.806,303.007 166.5,303.5C 157.825,302.654 153.492,297.821 153.5,289C 155.305,276.557 162.305,272.223 174.5,276C 178.624,278.42 180.457,281.92 180,286.5C 173.895,289.23 167.728,291.73 161.5,294C 166.149,298.74 170.649,298.573 175,293.5C 176.302,294.085 177.469,294.751 178.5,295.5 Z M 165.5,281.5 C 167.655,281.372 169.655,281.872 171.5,283C 168.564,284.649 165.564,286.149 162.5,287.5C 161.417,286.635 161.251,285.635 162,284.5C 163.145,283.364 164.312,282.364 165.5,281.5 Z"/></g>
<g><path style="opacity:0.996" fill="#767676" d="M 251.5,274.5 C 262.115,273.778 267.781,278.612 268.5,289C 268.237,292.698 267.237,296.198 265.5,299.5C 257.414,306.194 249.581,305.861 242,298.5C 240,292.5 240,286.5 242,280.5C 244.59,277.377 247.757,275.377 251.5,274.5 Z M 252.5,280.5 C 254.854,280.838 257.187,281.338 259.5,282C 262.988,286.764 263.154,291.597 260,296.5C 249.114,299.954 244.78,295.954 247,284.5C 248.812,283.023 250.645,281.69 252.5,280.5 Z"/></g>
<g><path style="opacity:0.012" fill="#d9d9d9" d="M 178.5,295.5 C 181.004,297.542 180.67,299.208 177.5,300.5C 178.301,298.958 178.634,297.292 178.5,295.5 Z"/></g>
<g><path style="opacity:0.176" fill="#e1e1e1" d="M 408.5,298.5 C 410.104,299.287 410.771,300.62 410.5,302.5C 409.326,301.486 408.66,300.153 408.5,298.5 Z"/></g>
<g><path style="opacity:0.369" fill="#adadad" d="M 131.5,308.5 C 131.92,306.906 132.586,305.406 133.5,304C 133.167,303.5 132.833,303 132.5,302.5C 130.929,303.309 129.262,303.643 127.5,303.5C 129.515,302.076 131.848,301.41 134.5,301.5C 135.092,304.631 134.092,306.964 131.5,308.5 Z"/></g>
<g><path style="opacity:0.991" fill="#747474" d="M 138.5,311.5 C 136.5,311.5 135.5,312.5 135.5,314.5C 128.543,318.865 122.043,318.198 116,312.5C 114.441,310.783 113.608,308.783 113.5,306.5C 115.401,306.567 117.234,306.233 119,305.5C 121.375,305.818 122.542,307.151 122.5,309.5C 124.144,309.286 125.644,309.62 127,310.5C 128.47,309.733 129.97,309.067 131.5,308.5C 134.092,306.964 135.092,304.631 134.5,301.5C 131.848,301.41 129.515,302.076 127.5,303.5C 121.597,304.4 117.263,302.067 114.5,296.5C 114.34,294.847 113.674,293.514 112.5,292.5C 111.41,286.387 113.077,281.221 117.5,277C 122.712,274.078 127.878,273.911 133,276.5C 135.719,275.556 138.552,275.223 141.5,275.5C 141.667,286.172 141.5,296.839 141,307.5C 140.338,308.984 139.504,310.317 138.5,311.5 Z M 124.5,281.5 C 129.984,281.152 133.317,283.652 134.5,289C 133.364,295.585 129.697,298.085 123.5,296.5C 118.347,291.138 118.68,286.138 124.5,281.5 Z"/></g>
<g><path style="opacity:0.229" fill="#c8c8c8" d="M 317.5,302.5 C 315.863,303.38 314.03,304.046 312,304.5C 311.235,304.43 310.735,304.097 310.5,303.5C 312.764,302.781 315.097,302.448 317.5,302.5 Z"/></g>
<g><path style="opacity:0.059" fill="#d7d7d7" d="M 173.5,302.5 C 171.287,304.312 168.953,304.645 166.5,303.5C 168.806,303.007 171.139,302.674 173.5,302.5 Z"/></g>
<g><path style="opacity:0.075" fill="#c6c6c6" d="M 274.5,301.5 C 278.446,303.162 282.446,303.496 286.5,302.5C 282.355,305.08 278.355,304.747 274.5,301.5 Z"/></g>
<g><path style="opacity:0.039" fill="#d3d3d3" d="M 138.5,311.5 C 137.833,312.833 136.833,313.833 135.5,314.5C 135.5,312.5 136.5,311.5 138.5,311.5 Z"/></g>
</svg>
